<svg xmlns="http://www.w3.org/2000/svg" viewBox="0 0 32 32" fill="none">
  <!-- Упрощенный логотип для favicon -->
  <circle cx="16" cy="16" r="2" fill="#D19CC2"/>

  <!-- Левый лепесток -->
  <path d="M16 16 Q 10 12, 6 14 Q 4 15, 5 17 Q 8 18, 12 17 Q 15 16, 16 16"
        fill="#D19CC2" opacity="0.7"/>

  <!-- Правый лепесток -->
  <path d="M16 16 Q 22 12, 26 14 Q 28 15, 27 17 Q 24 18, 20 17 Q 17 16, 16 16"
        fill="#D19CC2" opacity="0.7"/>

  <!-- Верхний лепесток -->
  <path d="M16 16 Q 16 8, 16 5 Q 16 4, 17 5 Q 18 8, 17 13 Q 16 15, 16 16"
        fill="#D19CC2" opacity="0.6"/>

  <!-- Левый нижний лепесток -->
  <path d="M16 16 Q 12 20, 8 24 Q 6 25, 8 26 Q 11 26, 15 22 Q 16 19, 16 16"
        fill="#D19CC2" opacity="0.65"/>

  <!-- Правый нижний лепесток -->
  <path d="M16 16 Q 20 20, 24 24 Q 26 25, 24 26 Q 21 26, 17 22 Q 16 19, 16 16"
        fill="#D19CC2" opacity="0.65"/>
</svg>
